<svg width="1500" height="64" viewBox="0 0 1500 64" fill="none" xmlns="http://www.w3.org/2000/svg">
<g clip-path="url(#clip0_41_7)">
<path d="M1500 57.6L1416.67 58.6667C1333.33 59.7333 1166.67 61.8667 1000 54.4C833.333 46.9333 666.667 29.8667 500 25.6C333.333 21.3333 166.667 29.8667 5.72205e-05 30.9333C-166.667 32 -333.333 25.6 -500 26.6667C-666.667 27.7333 -833.333 36.2667 -1000 40.5333C-1166.67 44.8 -1333.33 44.8 -1500 43.7333C-1666.67 42.6667 -1833.33 40.5333 -2000 40.5333C-2166.67 40.5333 -2333.33 42.6667 -2500 40.5333C-2666.67 38.4 -2833.33 32 -3000 27.7333C-3166.67 23.4667 -3333.33 21.3333 -3500 27.7333C-3666.67 34.1333 -3833.33 49.0667 -4000 50.1333C-4166.67 51.2 -4333.33 38.4 -4500 29.8667C-4666.67 21.3333 -4833.33 17.0667 -5000 23.4667C-5166.67 29.8667 -5333.33 46.9333 -5500 52.2667C-5666.67 57.6 -5833.33 51.2 -6000 45.8667C-6166.67 40.5333 -6333.33 36.2667 -6500 30.9333C-6666.67 25.6 -6833.33 19.2 -7000 19.2C-7166.67 19.2 -7333.33 25.6 -7500 29.8667C-7666.67 34.1333 -7833.33 36.2667 -8000 32C-8166.67 27.7333 -8333.33 17.0667 -8500 17.0667C-8666.67 17.0667 -8833.33 27.7333 -9000 36.2667C-9166.67 44.8 -9333.33 51.2 -9500 52.2667C-9666.67 53.3333 -9833.33 49.0667 -10000 41.6C-10166.7 34.1333 -10333.3 23.4667 -10416.7 18.1333L-10500 12.8V-2.10085e-06H-10416.7C-10333.3 -2.10085e-06 -10166.7 -2.10085e-06 -10000 -2.10085e-06C-9833.33 -2.10085e-06 -9666.67 -2.10085e-06 -9500 -2.10085e-06C-9333.33 -2.10085e-06 -9166.67 -2.10085e-06 -9000 -2.10085e-06C-8833.33 -2.10085e-06 -8666.67 -2.10085e-06 -8500 -2.10085e-06C-8333.33 -2.10085e-06 -8166.67 -2.10085e-06 -8000 -2.10085e-06C-7833.33 -2.10085e-06 -7666.67 -2.10085e-06 -7500 -2.10085e-06C-7333.33 -2.10085e-06 -7166.67 -2.10085e-06 -7000 -2.10085e-06C-6833.33 -2.10085e-06 -6666.67 -2.10085e-06 -6500 -2.10085e-06C-6333.33 -2.10085e-06 -6166.67 -2.10085e-06 -6000 -2.10085e-06C-5833.33 -2.10085e-06 -5666.67 -2.10085e-06 -5500 -2.10085e-06C-5333.33 -2.10085e-06 -5166.67 -2.10085e-06 -5000 -2.10085e-06C-4833.33 -2.10085e-06 -4666.67 -2.10085e-06 -4500 -2.10085e-06C-4333.33 -2.10085e-06 -4166.67 -2.10085e-06 -4000 -2.10085e-06C-3833.33 -2.10085e-06 -3666.67 -2.10085e-06 -3500 -2.10085e-06C-3333.33 -2.10085e-06 -3166.67 -2.10085e-06 -3000 -2.10085e-06C-2833.33 -2.10085e-06 -2666.67 -2.10085e-06 -2500 -2.10085e-06C-2333.33 -2.10085e-06 -2166.67 -2.10085e-06 -2000 -2.10085e-06C-1833.33 -2.10085e-06 -1666.67 -2.10085e-06 -1500 -2.10085e-06C-1333.33 -2.10085e-06 -1166.67 -2.10085e-06 -1000 -2.10085e-06C-833.333 -2.10085e-06 -666.667 -2.10085e-06 -500 -2.10085e-06C-333.333 -2.10085e-06 -166.667 -2.10085e-06 5.72205e-05 -2.10085e-06C166.667 -2.10085e-06 333.333 -2.10085e-06 500 -2.10085e-06C666.667 -2.10085e-06 833.333 -2.10085e-06 1000 -2.10085e-06C1166.67 -2.10085e-06 1333.33 -2.10085e-06 1416.67 -2.10085e-06H1500V57.6Z" fill="url(#paint0_linear_41_7)"/>
</g>
<defs>
<linearGradient id="paint0_linear_41_7" x1="1500" y1="-3.8147e-06" x2="1500" y2="59.7863" gradientUnits="userSpaceOnUse">
<stop stop-color="#3E0552"/>
<stop offset="1" stop-color="#3E0552"/>
</linearGradient>
<clipPath id="clip0_41_7">
<rect width="1500" height="64" fill="white" transform="matrix(-1 0 0 -1 1500 64)"/>
</clipPath>
</defs>
</svg>
