<svg width="1500" height="150" viewBox="0 0 1500 150" fill="none" xmlns="http://www.w3.org/2000/svg">
<g filter="url(#filter0_b_36_97)">
<path d="M0 0L50 10.9905C100 21.9809 200 43.9618 300 43.9618C400 43.9618 500 21.9809 600 43.9618C700 65.9428 800 131.886 900 146.517C1000 161.422 1100 124.33 1200 113.545C1300 102.349 1400 117.461 1450 124.536L1500 131.886V0H1450C1400 0 1300 0 1200 0C1100 0 1000 0 900 0C800 0 700 0 600 0C500 0 400 0 300 0C200 0 100 0 50 0H0Z" fill="#3E0552"/>
</g>
<defs>
<filter id="filter0_b_36_97" x="-50" y="-50" width="1600" height="250" filterUnits="userSpaceOnUse" color-interpolation-filters="sRGB">
<feFlood flood-opacity="0" result="BackgroundImageFix"/>
<feGaussianBlur in="BackgroundImageFix" stdDeviation="25"/>
<feComposite in2="SourceAlpha" operator="in" result="effect1_backgroundBlur_36_97"/>
<feBlend mode="normal" in="SourceGraphic" in2="effect1_backgroundBlur_36_97" result="shape"/>
</filter>
</defs>
</svg>
