<svg width="1500" height="150" viewBox="0 0 1500 150" fill="none" xmlns="http://www.w3.org/2000/svg">
<g filter="url(#filter0_b_36_99)">
<path d="M0 0L50 7.5C100 15 200 30 300 30C400 30 500 15 600 30C700 45 800 90 900 99.9844C1000 110.156 1100 84.8438 1200 77.4844C1300 69.8438 1400 80.1563 1450 84.9844L1500 90V150H1450C1400 150 1300 150 1200 150C1100 150 1000 150 900 150C800 150 700 150 600 150C500 150 400 150 300 150C200 150 100 150 50 150H0V0Z" fill="#3E0552"/>
</g>
<defs>
<filter id="filter0_b_36_99" x="-50" y="-50" width="1600" height="250" filterUnits="userSpaceOnUse" color-interpolation-filters="sRGB">
<feFlood flood-opacity="0" result="BackgroundImageFix"/>
<feGaussianBlur in="BackgroundImageFix" stdDeviation="25"/>
<feComposite in2="SourceAlpha" operator="in" result="effect1_backgroundBlur_36_99"/>
<feBlend mode="normal" in="SourceGraphic" in2="effect1_backgroundBlur_36_99" result="shape"/>
</filter>
</defs>
</svg>
